<svg width="1178" height="1178" viewBox="0 0 1178 1178" fill="none" xmlns="http://www.w3.org/2000/svg">
<path d="M1164.05 1164.06C1172.98 1155.09 1178 1142.95 1178 1130.29C1178 1117.63 1172.98 1105.49 1164.05 1096.52L820.009 752.611C886.963 670.437 923.447 567.642 923.279 461.645C923.141 339.252 874.459 221.911 787.915 135.366C701.371 48.8205 584.032 0.138572 461.64 0C339.248 0.138572 221.908 48.8205 135.364 135.366C48.8199 221.911 0.13857 339.252 0 461.645C0.13857 584.038 48.8199 701.379 135.364 787.924C221.908 874.47 339.248 923.152 461.64 923.29C567.635 923.458 670.429 886.973 752.602 820.019L1096.64 1164.06C1105.57 1172.97 1117.66 1177.98 1130.28 1178C1136.55 1178.01 1142.75 1176.78 1148.55 1174.39C1154.34 1172 1159.61 1168.49 1164.05 1164.06V1164.06ZM827.797 461.645C827.693 558.708 789.089 651.766 720.456 720.399C651.823 789.033 558.767 827.637 461.705 827.741C364.632 827.655 271.559 789.058 202.912 720.422C134.264 651.787 95.6517 558.719 95.5477 461.645C95.6516 364.582 134.255 271.525 202.888 202.891C271.521 134.257 364.578 95.6528 461.64 95.5489C558.713 95.6355 651.786 134.232 720.433 202.868C789.08 271.503 827.693 364.571 827.797 461.645V461.645Z" fill="#737373"/>
</svg>
