<svg width="39" height="35" viewBox="0 0 39 35" fill="none" xmlns="http://www.w3.org/2000/svg">
<path d="M35.1305 7.5H6.09375C5.42039 7.5 4.875 6.94063 4.875 6.25C4.875 5.55937 5.42039 5 6.09375 5H35.3438C36.0171 5 36.5625 4.44063 36.5625 3.75C36.5625 1.67891 34.9256 0 32.9062 0H4.875C2.18232 0 0 2.23828 0 5V30C0 32.7617 2.18232 35 4.875 35H35.1305C37.2648 35 39 33.318 39 31.25V11.25C39 9.18203 37.2648 7.5 35.1305 7.5ZM31.6875 23.75C30.3415 23.75 29.25 22.6305 29.25 21.25C29.25 19.8695 30.3415 18.75 31.6875 18.75C33.0335 18.75 34.125 19.8695 34.125 21.25C34.125 22.6305 33.0335 23.75 31.6875 23.75Z" fill="#8B5536"/>
</svg>
